<svg height='100px' width='100px'  fill="#000000" xmlns="http://www.w3.org/2000/svg" xmlnsXlink="http://www.w3.org/1999/xlink" version="1.1" x="0px" y="0px" viewBox="0 0 100 100" style="enable-background:new 0 0 100 100;" xml:space="preserve"><path d="M23.82,33.51c0.9,0,1.63-0.73,1.63-1.63s-0.73-1.63-1.63-1.63H19.6c-0.41,0-0.8,0.15-1.11,0.43l-7.52,6.92  c-0.01,0.01-0.01,0.02-0.02,0.03c-0.09,0.09-0.15,0.2-0.22,0.3c-0.05,0.07-0.11,0.14-0.15,0.22c-0.03,0.08-0.04,0.16-0.06,0.25  c-0.03,0.12-0.07,0.25-0.08,0.38c0,0.01-0.01,0.02-0.01,0.03v54.57c0,0.9,0.73,1.63,1.63,1.63h75.84c0.9,0,1.63-0.73,1.63-1.63V38.8  c0-0.01-0.01-0.02-0.01-0.03c0-0.13-0.04-0.25-0.07-0.37c-0.02-0.08-0.02-0.18-0.06-0.25c-0.03-0.06-0.08-0.11-0.12-0.17  c-0.07-0.12-0.14-0.25-0.25-0.35c-0.01-0.01-0.01-0.02-0.02-0.02l-7.38-6.92c-0.3-0.28-0.7-0.44-1.12-0.44h-3.51  c-0.9,0-1.63,0.73-1.63,1.63s0.73,1.63,1.63,1.63h2.86l3.89,3.65h-12V22.71C71.79,18.44,65.62,5,51.27,5  C37.66,5,28.64,16.65,28.64,24.36v12.81H16.27l3.97-3.65H23.82z M31.9,24.36c0-5.67,7.35-16.09,19.37-16.09  c12.56,0,17.26,12,17.26,14.45v14.45H31.9V24.36z M86.29,40.43v51.3H13.71v-51.3H86.29z"></path><path d="M63.07,30.24H36.93c-0.9,0-1.63,0.73-1.63,1.63s0.73,1.63,1.63,1.63h26.14c0.9,0,1.63-0.73,1.63-1.63  S63.97,30.24,63.07,30.24z"></path></svg>