<svg width="316" height="580" viewBox="0 0 316 580" fill="none" xmlns="http://www.w3.org/2000/svg">
<path d="M-39.0508 -141.132C47.6393 -109.463 195.758 6.80451 270.522 154.941C296.924 207.254 326.714 259.042 310.444 303.934C290.108 360.047 210.771 279.976 158.778 316.354C106.785 352.732 159.666 492.481 104.92 544.988C50.1749 597.495 -63.6153 585.658 -124.093 535.165C-184.571 484.672 -235.023 401.992 -300.706 262.467C-366.39 122.942 -429.079 131.402 -491.449 57.0464C-553.819 -17.3097 -588.686 -217.039 -598.169 -300.435C-607.653 -383.832 -399.136 -318.493 -343.266 -282.799C-287.396 -247.105 -147.414 -180.718 -39.0508 -141.132Z" stroke="#FFC580"/>
</svg>
